<svg width="189" height="36" viewBox="0 0 189 36" fill="none" xmlns="http://www.w3.org/2000/svg">
<path d="M64.1928 8.30178C67.1137 8.30178 68.9103 9.49503 69.4258 9.88142L71.383 6.33198C70.3558 5.55921 67.8832 4.13867 63.9388 4.13867C56.7188 4.13867 51.9377 9.20335 51.9377 15.787C51.9377 22.3367 56.6889 27.4051 63.9388 27.4051C67.984 27.4051 70.3558 26.0187 71.383 25.2421L69.4557 21.7268C68.8767 22.1132 67.1137 23.242 64.1928 23.242C59.5089 23.242 56.4909 20.2721 56.4909 15.7567C56.4909 11.2376 59.5388 8.30178 64.1928 8.30178Z" fill="#00AD8C"/>
<path d="M83.3542 13.6943C82.2635 12.6942 80.7209 11.9858 78.7637 11.9858C74.6886 11.9858 71.5735 15.308 71.5735 19.6984C71.5735 24.0888 74.5915 27.4109 78.6666 27.4109C80.8479 27.4109 82.454 26.4412 83.5447 25.0888L83.7053 27.123H87.4293V12.2737H83.5447L83.3542 13.6943ZM79.5966 23.566C77.4452 23.566 75.8092 21.8879 75.8092 19.6946C75.8092 17.4672 77.4452 15.8232 79.5966 15.8232C81.9087 15.8232 83.3841 17.4369 83.3841 19.6946C83.4177 21.922 81.9087 23.566 79.5966 23.566Z" fill="#00AD8C"/>
<path d="M95.9303 15.3724C97.5663 15.3724 99.1388 15.952 100.454 16.7929L102.123 13.664C100.808 12.7586 98.5598 11.9858 96.0237 11.9858C92.2997 11.9858 89.8606 13.8269 89.8606 16.6641C89.8606 19.5999 92.6545 20.6644 95.1571 21.278C97.1143 21.7288 97.8203 22.0849 97.8203 22.8577C97.8203 23.6304 97.1778 24.0206 95.9602 24.0206C93.9394 24.0206 92.0756 23.2478 90.955 22.4069L89.2219 25.5358C90.7608 26.6003 92.9758 27.4072 95.5456 27.4072C99.8447 27.4072 102.123 25.4374 102.123 22.6001C102.123 19.4711 99.587 18.5658 97.1816 17.9862C94.9666 17.471 94.1972 17.2134 94.1972 16.4709C94.1972 15.7247 94.8732 15.3724 95.9303 15.3724Z" fill="#00AD8C"/>
<path d="M121.281 27.4108C120.325 27.4108 119.529 26.7214 119.357 25.8122C119.357 25.8047 119.353 25.7971 119.353 25.7895C119.346 25.7554 119.342 25.7213 119.339 25.6872C119.335 25.6342 119.331 25.585 119.327 25.5584V25.2668C119.327 25.2668 119.327 25.2668 119.327 25.263V18.9217C119.327 14.7586 116.601 11.9857 112.682 11.9857C110.755 11.9857 109.343 12.6638 108.447 13.5994V4.07617H104.241V27.1153H108.447V19.3725C108.447 17.4027 109.732 15.7889 111.85 15.7889C113.777 15.7889 115.122 17.2739 115.122 19.5013V25.4789H115.125C115.155 28.8768 117.9 31.6232 121.288 31.6232C121.292 31.6232 121.296 31.6232 121.299 31.6232V27.4108C121.292 27.4108 121.285 27.4108 121.281 27.4108Z" fill="#00AD8C"/>
<path d="M140.058 11.9819C135.628 11.9819 132.068 15.3041 132.068 19.6945C132.068 24.0849 135.632 27.407 140.058 27.407C144.488 27.407 148.047 24.0849 148.047 19.6945C148.047 15.3041 144.488 11.9819 140.058 11.9819ZM140.058 23.5659C137.94 23.5659 136.304 21.8575 136.304 19.6945C136.304 17.5656 137.94 15.8231 140.058 15.8231C142.209 15.8231 143.812 17.5656 143.812 19.6945C143.815 21.8575 142.209 23.5659 140.058 23.5659Z" fill="#021B51"/>
<path d="M158.577 11.9819C156.041 11.9819 154.211 13.3684 153.699 15.1753L153.538 12.2698H150.038V27.1116H154.244V19.6642C154.244 17.5656 155.69 16.0162 158.032 16.0162C158.704 16.0162 159.092 16.145 159.507 16.3079L159.862 12.1145C159.473 12.016 159.025 11.9819 158.577 11.9819Z" fill="#021B51"/>
<path d="M168.43 15.8227C169.969 15.8227 170.997 16.372 171.673 16.8227L173.372 13.6294C172.506 13.0157 170.87 11.9854 167.949 11.9854C163.328 11.9854 159.828 15.3719 159.828 19.6979C159.828 24.0542 163.231 27.4105 167.949 27.4105C170.87 27.4105 172.442 26.3119 173.342 25.7323L171.673 22.5693C171 23.0201 170.003 23.5693 168.367 23.5693C165.831 23.5693 164.131 21.9556 164.131 19.6979C164.131 17.4402 165.861 15.8227 168.43 15.8227Z" fill="#021B51"/>
<path d="M189 19.7282C189 15.2734 186.113 11.9854 181.649 11.9854C177.126 11.9854 173.948 15.3719 173.948 19.6979C173.948 24.0542 177.38 27.4105 182.068 27.4105C185.437 27.4105 187.267 26.1831 188.167 25.3762L186.434 22.342C185.792 22.8572 184.667 23.8572 182.52 23.8572C180.208 23.8572 178.572 22.5655 178.09 20.8571H188.937C188.937 20.8571 189 20.2737 189 19.7282ZM178.12 18.1448C178.602 16.3038 179.98 15.3378 181.81 15.3378C183.48 15.3378 184.794 16.4667 184.989 18.1448H178.12Z" fill="#021B51"/>
<path d="M127.448 10.7581C127.448 8.53074 128.86 7.65948 130.306 7.65948C131.299 7.65948 131.815 7.98147 132.102 8.14436L133.708 4.9813C133.002 4.49643 131.781 3.81836 129.824 3.81836C125.652 3.81836 123.246 6.39805 123.246 10.5309V12.2734H121.199V15.8228H123.246V25.4521H123.242C123.235 26.528 122.372 27.3992 121.304 27.4106V31.6192C124.692 31.6116 127.441 28.8539 127.456 25.4484H127.452V15.8228H131.882V12.2734H127.452V10.7581H127.448Z" fill="#021B51"/>
<path d="M34.8754 12.459C34.7335 12.7962 34.4122 13.0159 34.0537 13.0197C34.0499 13.0197 34.0499 13.0197 34.0499 13.0197H23.3674L14.0967 22.4217H11.5792L22.3738 11.4741C22.5419 11.3074 22.7697 11.2127 22.9976 11.2127H31.9022L22.6278 1.80692H3.04431L12.5727 11.4741C12.9201 11.8264 12.9201 12.4022 12.5765 12.7545L3.04431 22.4217H11.5754C11.2169 22.4217 10.8956 22.6414 10.7537 22.9823C10.6155 23.3195 10.6939 23.7059 10.9479 23.9635L11.2057 24.2248H0.889124C0.530548 24.2248 0.205588 24.0051 0.0673872 23.6642C-0.070814 23.3233 0.00762448 22.9369 0.265351 22.6793L10.6865 12.1105L0.265351 1.54175C0.00762448 1.28795 -0.070814 0.901565 0.0673872 0.560637C0.209323 0.219709 0.530548 0 0.889124 0H22.9938C23.2254 0 23.4533 0.0947023 23.6213 0.261378L34.4234 11.2127L34.6812 11.4741C34.9352 11.7393 35.0136 12.1219 34.8754 12.459Z" fill="#00AD8C"/>
<path d="M45.5657 34.8771C45.4238 35.218 45.0988 35.4377 44.7402 35.4377H22.6281C22.3965 35.4377 22.1686 35.343 22.0043 35.1764L11.2097 24.2288L10.9519 23.9674C10.6979 23.7098 10.6195 23.3234 10.7577 22.9863C10.8996 22.6453 11.2209 22.4256 11.5794 22.4256H22.262L31.5327 13.0198H34.0502C34.0539 13.0198 34.0539 13.0198 34.0539 13.0198L23.2593 23.9674C23.08 24.1416 22.8596 24.2288 22.6281 24.2288H13.7272L23.0016 33.6346H42.5888L33.0566 23.9674C32.8886 23.7969 32.7989 23.5696 32.7989 23.3272C32.7989 23.0848 32.8923 22.8575 33.0566 22.687L42.5888 13.0198H34.0539C34.4125 13.016 34.7337 12.7963 34.8757 12.4592C35.0101 12.122 34.9354 11.7394 34.6814 11.4743L34.4237 11.2129H44.7365C45.0951 11.2129 45.42 11.4326 45.562 11.7697C45.7002 12.1107 45.6217 12.4971 45.3678 12.7584L34.9466 23.3272L45.3678 33.896C45.6217 34.1536 45.7002 34.54 45.5657 34.8771Z" fill="#021B51"/>
</svg>
